<?xml version="1.0" standalone="no"?>
<!DOCTYPE svg PUBLIC "-//W3C//DTD SVG 20010904//EN"
 "http://www.w3.org/TR/2001/REC-SVG-20010904/DTD/svg10.dtd">
<svg version="1.0" xmlns="http://www.w3.org/2000/svg"
 width="606.000000pt" height="606.000000pt" viewBox="0 0 606.000000 606.000000"
 preserveAspectRatio="xMidYMid meet">
<metadata>
Created by potrace 1.14, written by Peter Selinger 2001-2017
</metadata>
<g transform="translate(0.000000,606.000000) scale(0.100000,-0.100000)"
fill="#000000" stroke="none">
<path d="M999 6046 c-2 -2 -23 -6 -46 -10 -189 -25 -392 -127 -532 -265 -43
-42 -91 -96 -107 -121 -16 -25 -31 -47 -35 -50 -27 -23 -111 -231 -124 -310
-4 -19 -10 -57 -15 -85 -9 -49 -6 -336 3 -385 3 -14 8 -50 12 -80 17 -146 33
-229 91 -475 20 -82 37 -157 39 -165 2 -8 4 -15 5 -15 1 0 3 -9 5 -20 2 -11
17 -78 34 -149 17 -71 34 -150 37 -175 3 -25 8 -49 10 -52 3 -6 14 -102 19
-167 1 -18 -8 -70 -21 -116 -12 -46 -25 -102 -28 -125 -3 -23 -7 -45 -10 -49
-2 -4 -7 -32 -11 -62 -4 -30 -9 -66 -11 -80 -24 -173 -24 -594 1 -721 3 -13 7
-42 10 -63 10 -78 65 -303 98 -406 180 -553 493 -988 982 -1366 120 -93 395
-252 530 -306 28 -11 61 -25 75 -31 14 -6 27 -11 30 -11 3 -1 10 -4 15 -7 12
-8 164 -58 191 -63 10 -3 38 -11 62 -20 23 -8 45 -15 47 -15 5 0 26 -4 85 -17
14 -3 36 -7 50 -10 14 -2 32 -6 40 -7 8 -2 38 -7 65 -11 28 -4 61 -10 75 -12
146 -25 688 -25 729 0 3 2 29 7 56 10 48 6 72 10 125 22 14 3 37 7 52 10 15 3
66 16 115 30 48 14 95 26 103 29 18 4 154 53 190 68 14 6 27 11 30 12 60 20
263 122 353 177 43 26 81 48 83 48 8 0 79 54 82 63 2 4 8 7 14 7 8 0 67 40 94
65 6 6 26 21 44 35 128 97 351 324 462 471 218 289 373 595 462 919 24 86 60
246 70 310 3 19 8 49 10 65 20 121 27 502 13 635 -17 148 -38 276 -64 375 -8
33 -17 69 -20 80 -10 41 -4 140 16 255 7 44 79 361 97 430 38 148 62 252 70
304 3 22 8 44 10 48 6 10 12 41 20 98 3 25 7 52 9 60 2 8 7 35 10 60 3 25 8
63 11 85 3 22 7 117 9 210 4 183 -8 279 -47 390 -27 76 -90 205 -100 205 -4 0
-8 5 -8 11 0 29 -125 167 -216 237 -99 77 -258 151 -384 178 -19 4 -42 9 -50
12 -45 12 -242 10 -310 -3 -76 -15 -201 -53 -210 -64 -3 -3 -18 -13 -35 -21
-16 -8 -32 -17 -35 -20 -3 -3 -18 -12 -33 -20 -64 -33 -278 -266 -260 -284 4
-3 2 -6 -4 -6 -14 0 -96 -178 -124 -270 -13 -41 -24 -77 -26 -79 -1 -2 -53 15
-115 37 -276 99 -489 143 -763 159 -190 11 -406 4 -539 -17 -34 -5 -78 -12
-100 -16 -47 -7 -49 -7 -161 -32 -92 -21 -222 -60 -353 -107 -41 -15 -75 -25
-77 -23 -2 2 -6 15 -8 29 -9 47 -44 139 -95 249 -50 109 -226 319 -303 361
-75 41 -199 99 -219 103 -8 1 -25 6 -37 10 -12 4 -39 9 -60 12 -48 7 -249 15
-254 10z"/>
</g>
</svg>
